<mxfile host="app.diagrams.net" agent="Mozilla/5.0 (Windows NT 10.0; Win64; x64) AppleWebKit/537.36 (KHTML, like Gecko) Chrome/135.0.0.0 Safari/537.36" version="26.2.15">
  <diagram name="Page-1" id="UDH-85XnWTIM_MMB5W17">
    <mxGraphModel dx="279" dy="141" grid="1" gridSize="10" guides="1" tooltips="1" connect="1" arrows="1" fold="1" page="1" pageScale="1" pageWidth="850" pageHeight="1100" math="0" shadow="0">
      <root>
        <mxCell id="0" />
        <mxCell id="1" parent="0" />
        <mxCell id="_nE7f_Leut5tjlK63jvd-120" value="" style="rounded=0;whiteSpace=wrap;html=1;dashed=1;fontSize=14;" parent="1" vertex="1">
          <mxGeometry x="180" y="870" width="750" height="700" as="geometry" />
        </mxCell>
        <mxCell id="_nE7f_Leut5tjlK63jvd-8" value="" style="shape=trapezoid;perimeter=trapezoidPerimeter;whiteSpace=wrap;html=1;fixedSize=1;direction=south;fontSize=14;" parent="1" vertex="1">
          <mxGeometry x="550" y="1200" width="30" height="80" as="geometry" />
        </mxCell>
        <mxCell id="TRS-EyIJMpE1R9faj7O3-1" value="Joint_histogram" style="rounded=0;whiteSpace=wrap;html=1;" parent="1" vertex="1">
          <mxGeometry x="200" y="160" width="300" height="240" as="geometry" />
        </mxCell>
        <mxCell id="TRS-EyIJMpE1R9faj7O3-3" value="" style="endArrow=classic;html=1;rounded=0;entryX=-0.003;entryY=0.164;entryDx=0;entryDy=0;entryPerimeter=0;" parent="1" target="TRS-EyIJMpE1R9faj7O3-1" edge="1">
          <mxGeometry width="50" height="50" relative="1" as="geometry">
            <mxPoint x="120" y="200" as="sourcePoint" />
            <mxPoint x="170" y="200" as="targetPoint" />
          </mxGeometry>
        </mxCell>
        <mxCell id="TRS-EyIJMpE1R9faj7O3-4" value="ci" style="text;html=1;align=center;verticalAlign=middle;whiteSpace=wrap;rounded=0;" parent="1" vertex="1">
          <mxGeometry x="100" y="170" width="60" height="30" as="geometry" />
        </mxCell>
        <mxCell id="TRS-EyIJMpE1R9faj7O3-5" value="" style="endArrow=classic;html=1;rounded=0;entryX=-0.004;entryY=0.223;entryDx=0;entryDy=0;entryPerimeter=0;" parent="1" edge="1">
          <mxGeometry width="50" height="50" relative="1" as="geometry">
            <mxPoint x="121" y="240" as="sourcePoint" />
            <mxPoint x="200" y="240" as="targetPoint" />
          </mxGeometry>
        </mxCell>
        <mxCell id="TRS-EyIJMpE1R9faj7O3-6" value="ni [3:0]" style="text;html=1;align=center;verticalAlign=middle;whiteSpace=wrap;rounded=0;" parent="1" vertex="1">
          <mxGeometry x="100" y="210" width="60" height="30" as="geometry" />
        </mxCell>
        <mxCell id="TRS-EyIJMpE1R9faj7O3-8" value="" style="endArrow=classic;html=1;rounded=0;entryX=-0.004;entryY=0.223;entryDx=0;entryDy=0;entryPerimeter=0;" parent="1" edge="1">
          <mxGeometry width="50" height="50" relative="1" as="geometry">
            <mxPoint x="121" y="280" as="sourcePoint" />
            <mxPoint x="200" y="280" as="targetPoint" />
          </mxGeometry>
        </mxCell>
        <mxCell id="TRS-EyIJMpE1R9faj7O3-9" value="rd [3:0]" style="text;html=1;align=center;verticalAlign=middle;whiteSpace=wrap;rounded=0;" parent="1" vertex="1">
          <mxGeometry x="100" y="250" width="60" height="30" as="geometry" />
        </mxCell>
        <mxCell id="TRS-EyIJMpE1R9faj7O3-10" value="" style="endArrow=classic;html=1;rounded=0;entryX=0;entryY=0.667;entryDx=0;entryDy=0;entryPerimeter=0;" parent="1" target="TRS-EyIJMpE1R9faj7O3-1" edge="1">
          <mxGeometry width="50" height="50" relative="1" as="geometry">
            <mxPoint x="120" y="320" as="sourcePoint" />
            <mxPoint x="180" y="280" as="targetPoint" />
          </mxGeometry>
        </mxCell>
        <mxCell id="TRS-EyIJMpE1R9faj7O3-11" value="i_valid" style="text;html=1;align=center;verticalAlign=middle;whiteSpace=wrap;rounded=0;" parent="1" vertex="1">
          <mxGeometry x="100" y="290" width="60" height="30" as="geometry" />
        </mxCell>
        <mxCell id="TRS-EyIJMpE1R9faj7O3-13" value="" style="endArrow=classic;html=1;rounded=0;entryX=0;entryY=0.667;entryDx=0;entryDy=0;entryPerimeter=0;" parent="1" edge="1">
          <mxGeometry width="50" height="50" relative="1" as="geometry">
            <mxPoint x="120" y="360" as="sourcePoint" />
            <mxPoint x="200" y="360" as="targetPoint" />
          </mxGeometry>
        </mxCell>
        <mxCell id="TRS-EyIJMpE1R9faj7O3-14" value="progress_done_i" style="text;html=1;align=center;verticalAlign=middle;whiteSpace=wrap;rounded=0;" parent="1" vertex="1">
          <mxGeometry x="100" y="330" width="60" height="30" as="geometry" />
        </mxCell>
        <mxCell id="TRS-EyIJMpE1R9faj7O3-15" value="" style="endArrow=classic;html=1;rounded=0;exitX=0.998;exitY=0.331;exitDx=0;exitDy=0;exitPerimeter=0;" parent="1" source="TRS-EyIJMpE1R9faj7O3-1" edge="1">
          <mxGeometry width="50" height="50" relative="1" as="geometry">
            <mxPoint x="500" y="241" as="sourcePoint" />
            <mxPoint x="590" y="240" as="targetPoint" />
          </mxGeometry>
        </mxCell>
        <mxCell id="TRS-EyIJMpE1R9faj7O3-16" value="cinird_rx [15:0]" style="text;html=1;align=center;verticalAlign=middle;whiteSpace=wrap;rounded=0;" parent="1" vertex="1">
          <mxGeometry x="520" y="200" width="60" height="30" as="geometry" />
        </mxCell>
        <mxCell id="TRS-EyIJMpE1R9faj7O3-17" value="" style="endArrow=classic;html=1;rounded=0;" parent="1" edge="1">
          <mxGeometry width="50" height="50" relative="1" as="geometry">
            <mxPoint x="500" y="280" as="sourcePoint" />
            <mxPoint x="590" y="280" as="targetPoint" />
          </mxGeometry>
        </mxCell>
        <mxCell id="TRS-EyIJMpE1R9faj7O3-18" value="o_valid" style="text;html=1;align=center;verticalAlign=middle;whiteSpace=wrap;rounded=0;" parent="1" vertex="1">
          <mxGeometry x="520" y="250" width="60" height="30" as="geometry" />
        </mxCell>
        <mxCell id="TRS-EyIJMpE1R9faj7O3-19" value="" style="endArrow=classic;html=1;rounded=0;" parent="1" edge="1">
          <mxGeometry width="50" height="50" relative="1" as="geometry">
            <mxPoint x="500" y="320" as="sourcePoint" />
            <mxPoint x="590" y="320" as="targetPoint" />
          </mxGeometry>
        </mxCell>
        <mxCell id="TRS-EyIJMpE1R9faj7O3-20" value="finish" style="text;html=1;align=center;verticalAlign=middle;whiteSpace=wrap;rounded=0;" parent="1" vertex="1">
          <mxGeometry x="520" y="290" width="60" height="30" as="geometry" />
        </mxCell>
        <mxCell id="TRS-EyIJMpE1R9faj7O3-21" value="IDLE" style="ellipse;whiteSpace=wrap;html=1;aspect=fixed;" parent="1" vertex="1">
          <mxGeometry x="72.5" y="350" width="80" height="80" as="geometry" />
        </mxCell>
        <mxCell id="TRS-EyIJMpE1R9faj7O3-22" value="" style="endArrow=classic;html=1;rounded=0;exitX=1;exitY=0.5;exitDx=0;exitDy=0;" parent="1" source="TRS-EyIJMpE1R9faj7O3-21" edge="1">
          <mxGeometry width="50" height="50" relative="1" as="geometry">
            <mxPoint x="212.5" y="440" as="sourcePoint" />
            <mxPoint x="262.5" y="390" as="targetPoint" />
          </mxGeometry>
        </mxCell>
        <mxCell id="TRS-EyIJMpE1R9faj7O3-23" value="COUNTING" style="ellipse;whiteSpace=wrap;html=1;aspect=fixed;" parent="1" vertex="1">
          <mxGeometry x="262.5" y="350" width="80" height="80" as="geometry" />
        </mxCell>
        <mxCell id="TRS-EyIJMpE1R9faj7O3-24" value="i_valid" style="text;html=1;align=center;verticalAlign=middle;whiteSpace=wrap;rounded=0;" parent="1" vertex="1">
          <mxGeometry x="162.5" y="350" width="60" height="30" as="geometry" />
        </mxCell>
        <mxCell id="TRS-EyIJMpE1R9faj7O3-25" value="" style="endArrow=classic;html=1;rounded=0;exitX=1;exitY=1;exitDx=0;exitDy=0;entryX=0.042;entryY=0.261;entryDx=0;entryDy=0;entryPerimeter=0;" parent="1" source="TRS-EyIJMpE1R9faj7O3-23" target="TRS-EyIJMpE1R9faj7O3-26" edge="1">
          <mxGeometry width="50" height="50" relative="1" as="geometry">
            <mxPoint x="342.5" y="470" as="sourcePoint" />
            <mxPoint x="392.5" y="470" as="targetPoint" />
          </mxGeometry>
        </mxCell>
        <mxCell id="TRS-EyIJMpE1R9faj7O3-26" value="READING" style="ellipse;whiteSpace=wrap;html=1;aspect=fixed;" parent="1" vertex="1">
          <mxGeometry x="392.5" y="450" width="80" height="80" as="geometry" />
        </mxCell>
        <mxCell id="TRS-EyIJMpE1R9faj7O3-27" value="progress_done_i" style="text;html=1;align=center;verticalAlign=middle;whiteSpace=wrap;rounded=0;" parent="1" vertex="1">
          <mxGeometry x="352.5" y="405" width="60" height="30" as="geometry" />
        </mxCell>
        <mxCell id="TRS-EyIJMpE1R9faj7O3-28" value="" style="endArrow=classic;html=1;rounded=0;exitX=0.069;exitY=0.748;exitDx=0;exitDy=0;exitPerimeter=0;entryX=1;entryY=0.5;entryDx=0;entryDy=0;" parent="1" source="TRS-EyIJMpE1R9faj7O3-26" edge="1">
          <mxGeometry width="50" height="50" relative="1" as="geometry">
            <mxPoint x="271.5" y="500" as="sourcePoint" />
            <mxPoint x="252.49999999999568" y="510" as="targetPoint" />
          </mxGeometry>
        </mxCell>
        <mxCell id="TRS-EyIJMpE1R9faj7O3-29" value="FINISH" style="ellipse;whiteSpace=wrap;html=1;aspect=fixed;" parent="1" vertex="1">
          <mxGeometry x="175" y="470" width="80" height="80" as="geometry" />
        </mxCell>
        <mxCell id="TRS-EyIJMpE1R9faj7O3-30" value="200 cycles" style="text;html=1;align=center;verticalAlign=middle;whiteSpace=wrap;rounded=0;" parent="1" vertex="1">
          <mxGeometry x="287.5" y="475" width="60" height="30" as="geometry" />
        </mxCell>
        <mxCell id="sNG5U-4dTfQpmakSV-AO-2" value="RESET" style="ellipse;whiteSpace=wrap;html=1;aspect=fixed;fillColor=#dae8fc;strokeColor=#6c8ebf;" parent="1" vertex="1">
          <mxGeometry x="673" y="510" width="60" height="60" as="geometry" />
        </mxCell>
        <mxCell id="sNG5U-4dTfQpmakSV-AO-3" value="" style="endArrow=classic;html=1;rounded=0;entryX=0.5;entryY=-0.032;entryDx=0;entryDy=0;entryPerimeter=0;" parent="1" target="sNG5U-4dTfQpmakSV-AO-2" edge="1">
          <mxGeometry width="50" height="50" relative="1" as="geometry">
            <mxPoint x="703" y="480" as="sourcePoint" />
            <mxPoint x="706.5" y="509.9999999999999" as="targetPoint" />
          </mxGeometry>
        </mxCell>
        <mxCell id="sNG5U-4dTfQpmakSV-AO-4" value="rst_n" style="text;html=1;align=center;verticalAlign=middle;whiteSpace=wrap;rounded=0;" parent="1" vertex="1">
          <mxGeometry x="693" y="470" width="60" height="30" as="geometry" />
        </mxCell>
        <mxCell id="sNG5U-4dTfQpmakSV-AO-6" value="IDLE" style="ellipse;whiteSpace=wrap;html=1;aspect=fixed;fillColor=#dae8fc;strokeColor=#6c8ebf;" parent="1" vertex="1">
          <mxGeometry x="603" y="570" width="60" height="60" as="geometry" />
        </mxCell>
        <mxCell id="sNG5U-4dTfQpmakSV-AO-7" value="" style="endArrow=classic;html=1;rounded=0;exitX=0.173;exitY=0.897;exitDx=0;exitDy=0;exitPerimeter=0;entryX=0.99;entryY=0.283;entryDx=0;entryDy=0;entryPerimeter=0;" parent="1" source="sNG5U-4dTfQpmakSV-AO-2" target="sNG5U-4dTfQpmakSV-AO-6" edge="1">
          <mxGeometry width="50" height="50" relative="1" as="geometry">
            <mxPoint x="679.66" y="602.26" as="sourcePoint" />
            <mxPoint x="663" y="530" as="targetPoint" />
          </mxGeometry>
        </mxCell>
        <mxCell id="sNG5U-4dTfQpmakSV-AO-9" value="COUTING" style="ellipse;whiteSpace=wrap;html=1;aspect=fixed;fillColor=#dae8fc;strokeColor=#6c8ebf;" parent="1" vertex="1">
          <mxGeometry x="633" y="640" width="60" height="60" as="geometry" />
        </mxCell>
        <mxCell id="sNG5U-4dTfQpmakSV-AO-10" value="READING" style="ellipse;whiteSpace=wrap;html=1;aspect=fixed;fillColor=#dae8fc;strokeColor=#6c8ebf;" parent="1" vertex="1">
          <mxGeometry x="723" y="640" width="60" height="60" as="geometry" />
        </mxCell>
        <mxCell id="sNG5U-4dTfQpmakSV-AO-11" value="FINISH" style="ellipse;whiteSpace=wrap;html=1;aspect=fixed;fillColor=#dae8fc;strokeColor=#6c8ebf;" parent="1" vertex="1">
          <mxGeometry x="753" y="570" width="60" height="60" as="geometry" />
        </mxCell>
        <mxCell id="sNG5U-4dTfQpmakSV-AO-13" value="reset_done" style="text;html=1;align=center;verticalAlign=middle;whiteSpace=wrap;rounded=0;" parent="1" vertex="1">
          <mxGeometry x="613" y="540" width="60" height="30" as="geometry" />
        </mxCell>
        <mxCell id="sNG5U-4dTfQpmakSV-AO-14" value="" style="endArrow=classic;html=1;rounded=0;exitX=0.669;exitY=0.979;exitDx=0;exitDy=0;exitPerimeter=0;entryX=0.333;entryY=0;entryDx=0;entryDy=0;entryPerimeter=0;" parent="1" source="sNG5U-4dTfQpmakSV-AO-6" target="sNG5U-4dTfQpmakSV-AO-9" edge="1">
          <mxGeometry width="50" height="50" relative="1" as="geometry">
            <mxPoint x="640" y="629" as="sourcePoint" />
            <mxPoint x="653" y="640" as="targetPoint" />
          </mxGeometry>
        </mxCell>
        <mxCell id="sNG5U-4dTfQpmakSV-AO-15" value="i_valid" style="text;html=1;align=center;verticalAlign=middle;whiteSpace=wrap;rounded=0;" parent="1" vertex="1">
          <mxGeometry x="583" y="630" width="60" height="30" as="geometry" />
        </mxCell>
        <mxCell id="sNG5U-4dTfQpmakSV-AO-16" value="" style="endArrow=classic;html=1;rounded=0;exitX=1;exitY=0.5;exitDx=0;exitDy=0;entryX=0;entryY=0.5;entryDx=0;entryDy=0;" parent="1" source="sNG5U-4dTfQpmakSV-AO-9" target="sNG5U-4dTfQpmakSV-AO-10" edge="1">
          <mxGeometry width="50" height="50" relative="1" as="geometry">
            <mxPoint x="713" y="730" as="sourcePoint" />
            <mxPoint x="763" y="680" as="targetPoint" />
          </mxGeometry>
        </mxCell>
        <mxCell id="sNG5U-4dTfQpmakSV-AO-17" value="read_en" style="text;html=1;align=center;verticalAlign=middle;whiteSpace=wrap;rounded=0;" parent="1" vertex="1">
          <mxGeometry x="673" y="680" width="60" height="30" as="geometry" />
        </mxCell>
        <mxCell id="sNG5U-4dTfQpmakSV-AO-19" value="" style="endArrow=classic;html=1;rounded=0;exitX=0.852;exitY=0.108;exitDx=0;exitDy=0;exitPerimeter=0;entryX=0.5;entryY=1;entryDx=0;entryDy=0;" parent="1" source="sNG5U-4dTfQpmakSV-AO-10" target="sNG5U-4dTfQpmakSV-AO-11" edge="1">
          <mxGeometry width="50" height="50" relative="1" as="geometry">
            <mxPoint x="813" y="680" as="sourcePoint" />
            <mxPoint x="863" y="630" as="targetPoint" />
          </mxGeometry>
        </mxCell>
        <mxCell id="sNG5U-4dTfQpmakSV-AO-20" value="done_read" style="text;html=1;align=center;verticalAlign=middle;whiteSpace=wrap;rounded=0;" parent="1" vertex="1">
          <mxGeometry x="783" y="630" width="60" height="30" as="geometry" />
        </mxCell>
        <mxCell id="sNG5U-4dTfQpmakSV-AO-21" value="" style="endArrow=classic;html=1;rounded=0;entryX=0.971;entryY=0.688;entryDx=0;entryDy=0;entryPerimeter=0;exitX=0.234;exitY=0.075;exitDx=0;exitDy=0;exitPerimeter=0;" parent="1" source="sNG5U-4dTfQpmakSV-AO-11" target="sNG5U-4dTfQpmakSV-AO-2" edge="1">
          <mxGeometry width="50" height="50" relative="1" as="geometry">
            <mxPoint x="763" y="600" as="sourcePoint" />
            <mxPoint x="813" y="550" as="targetPoint" />
          </mxGeometry>
        </mxCell>
        <mxCell id="sNG5U-4dTfQpmakSV-AO-22" value="" style="endArrow=none;dashed=1;html=1;dashPattern=1 3;strokeWidth=2;rounded=0;entryX=0.257;entryY=0.935;entryDx=0;entryDy=0;entryPerimeter=0;" parent="1" target="sNG5U-4dTfQpmakSV-AO-9" edge="1">
          <mxGeometry width="50" height="50" relative="1" as="geometry">
            <mxPoint x="623" y="710" as="sourcePoint" />
            <mxPoint x="643" y="680" as="targetPoint" />
          </mxGeometry>
        </mxCell>
        <mxCell id="sNG5U-4dTfQpmakSV-AO-23" value="count_en = 1&#39;b1" style="rounded=0;whiteSpace=wrap;html=1;strokeColor=default;dashed=1;" parent="1" vertex="1">
          <mxGeometry x="573" y="710" width="90" height="60" as="geometry" />
        </mxCell>
        <mxCell id="sNG5U-4dTfQpmakSV-AO-24" value="o_valid = 1&#39;b1" style="rounded=0;whiteSpace=wrap;html=1;strokeColor=default;dashed=1;" parent="1" vertex="1">
          <mxGeometry x="738" y="710" width="90" height="60" as="geometry" />
        </mxCell>
        <mxCell id="sNG5U-4dTfQpmakSV-AO-25" value="" style="endArrow=none;dashed=1;html=1;dashPattern=1 3;strokeWidth=2;rounded=0;entryX=0.462;entryY=-0.007;entryDx=0;entryDy=0;entryPerimeter=0;exitX=0.682;exitY=0.972;exitDx=0;exitDy=0;exitPerimeter=0;" parent="1" source="sNG5U-4dTfQpmakSV-AO-10" target="sNG5U-4dTfQpmakSV-AO-24" edge="1">
          <mxGeometry width="50" height="50" relative="1" as="geometry">
            <mxPoint x="800.5" y="714" as="sourcePoint" />
            <mxPoint x="825.5" y="700" as="targetPoint" />
          </mxGeometry>
        </mxCell>
        <mxCell id="sNG5U-4dTfQpmakSV-AO-26" value="o_finish = 1&#39;b1&lt;br&gt;reset_en = 1&#39;b1" style="rounded=0;whiteSpace=wrap;html=1;strokeColor=default;dashed=1;" parent="1" vertex="1">
          <mxGeometry x="833" y="550" width="90" height="50" as="geometry" />
        </mxCell>
        <mxCell id="sNG5U-4dTfQpmakSV-AO-27" value="" style="endArrow=none;dashed=1;html=1;dashPattern=1 3;strokeWidth=2;rounded=0;exitX=1.002;exitY=0.359;exitDx=0;exitDy=0;exitPerimeter=0;entryX=0;entryY=0.5;entryDx=0;entryDy=0;" parent="1" source="sNG5U-4dTfQpmakSV-AO-11" target="sNG5U-4dTfQpmakSV-AO-26" edge="1">
          <mxGeometry width="50" height="50" relative="1" as="geometry">
            <mxPoint x="793" y="650" as="sourcePoint" />
            <mxPoint x="843" y="600" as="targetPoint" />
          </mxGeometry>
        </mxCell>
        <mxCell id="sNG5U-4dTfQpmakSV-AO-28" value="" style="endArrow=classic;html=1;rounded=0;fontSize=14;" parent="1" edge="1">
          <mxGeometry width="50" height="50" relative="1" as="geometry">
            <mxPoint x="160" y="1120" as="sourcePoint" />
            <mxPoint x="200" y="1120" as="targetPoint" />
          </mxGeometry>
        </mxCell>
        <mxCell id="sNG5U-4dTfQpmakSV-AO-31" value="ci" style="text;html=1;align=center;verticalAlign=middle;whiteSpace=wrap;rounded=0;fontSize=14;" parent="1" vertex="1">
          <mxGeometry x="130" y="1090" width="60" height="30" as="geometry" />
        </mxCell>
        <mxCell id="sNG5U-4dTfQpmakSV-AO-32" value="" style="endArrow=classic;html=1;rounded=0;fontSize=14;" parent="1" edge="1">
          <mxGeometry width="50" height="50" relative="1" as="geometry">
            <mxPoint x="160" y="1200" as="sourcePoint" />
            <mxPoint x="200" y="1200" as="targetPoint" />
          </mxGeometry>
        </mxCell>
        <mxCell id="sNG5U-4dTfQpmakSV-AO-33" value="ni [3:0]" style="text;html=1;align=center;verticalAlign=middle;whiteSpace=wrap;rounded=0;" parent="1" vertex="1">
          <mxGeometry x="120" y="1170" width="60" height="30" as="geometry" />
        </mxCell>
        <mxCell id="sNG5U-4dTfQpmakSV-AO-34" value="" style="endArrow=classic;html=1;rounded=0;entryX=0;entryY=1;entryDx=0;entryDy=0;fontSize=14;" parent="1" target="sNG5U-4dTfQpmakSV-AO-58" edge="1">
          <mxGeometry width="50" height="50" relative="1" as="geometry">
            <mxPoint x="160" y="1280" as="sourcePoint" />
            <mxPoint x="200" y="1280" as="targetPoint" />
          </mxGeometry>
        </mxCell>
        <mxCell id="sNG5U-4dTfQpmakSV-AO-36" value="rd [3:0]" style="text;html=1;align=center;verticalAlign=middle;whiteSpace=wrap;rounded=0;" parent="1" vertex="1">
          <mxGeometry x="120" y="1250" width="60" height="30" as="geometry" />
        </mxCell>
        <mxCell id="sNG5U-4dTfQpmakSV-AO-38" value="&amp;lt;&amp;lt; 6 + &amp;lt;&amp;lt; 5 + &amp;lt;&amp;lt; 2" style="ellipse;shape=cloud;whiteSpace=wrap;html=1;fontSize=14;" parent="1" vertex="1">
          <mxGeometry x="190" y="1080" width="150" height="80" as="geometry" />
        </mxCell>
        <mxCell id="sNG5U-4dTfQpmakSV-AO-39" value="&amp;lt;&amp;lt; 3 + &amp;lt;&amp;lt; 1" style="ellipse;shape=cloud;whiteSpace=wrap;html=1;fontSize=14;" parent="1" vertex="1">
          <mxGeometry x="190" y="1160" width="150" height="80" as="geometry" />
        </mxCell>
        <mxCell id="sNG5U-4dTfQpmakSV-AO-45" value="" style="group;fontSize=14;" parent="1" vertex="1" connectable="0">
          <mxGeometry x="360" y="1100" width="40" height="60" as="geometry" />
        </mxCell>
        <mxCell id="sNG5U-4dTfQpmakSV-AO-46" value="" style="rounded=0;whiteSpace=wrap;html=1;fontSize=14;" parent="sNG5U-4dTfQpmakSV-AO-45" vertex="1">
          <mxGeometry width="40" height="60" as="geometry" />
        </mxCell>
        <mxCell id="sNG5U-4dTfQpmakSV-AO-47" value="" style="triangle;whiteSpace=wrap;html=1;direction=north;fontSize=14;" parent="sNG5U-4dTfQpmakSV-AO-45" vertex="1">
          <mxGeometry x="13.333333333333336" y="50" width="13.333333333333336" height="10" as="geometry" />
        </mxCell>
        <mxCell id="sNG5U-4dTfQpmakSV-AO-48" value="D" style="text;html=1;align=center;verticalAlign=middle;whiteSpace=wrap;rounded=0;fontSize=14;" parent="sNG5U-4dTfQpmakSV-AO-45" vertex="1">
          <mxGeometry y="5" width="13.333333333333336" height="15" as="geometry" />
        </mxCell>
        <mxCell id="sNG5U-4dTfQpmakSV-AO-49" value="Q" style="text;html=1;align=center;verticalAlign=middle;whiteSpace=wrap;rounded=0;fontSize=14;" parent="sNG5U-4dTfQpmakSV-AO-45" vertex="1">
          <mxGeometry x="26.66666666666667" y="5" width="13.333333333333336" height="15" as="geometry" />
        </mxCell>
        <mxCell id="sNG5U-4dTfQpmakSV-AO-50" value="" style="group;fontSize=14;" parent="1" vertex="1" connectable="0">
          <mxGeometry x="360" y="1180" width="40" height="60" as="geometry" />
        </mxCell>
        <mxCell id="sNG5U-4dTfQpmakSV-AO-51" value="" style="rounded=0;whiteSpace=wrap;html=1;fontSize=14;" parent="sNG5U-4dTfQpmakSV-AO-50" vertex="1">
          <mxGeometry width="40" height="60" as="geometry" />
        </mxCell>
        <mxCell id="sNG5U-4dTfQpmakSV-AO-52" value="" style="triangle;whiteSpace=wrap;html=1;direction=north;fontSize=14;" parent="sNG5U-4dTfQpmakSV-AO-50" vertex="1">
          <mxGeometry x="13.333333333333336" y="50" width="13.333333333333336" height="10" as="geometry" />
        </mxCell>
        <mxCell id="sNG5U-4dTfQpmakSV-AO-53" value="D" style="text;html=1;align=center;verticalAlign=middle;whiteSpace=wrap;rounded=0;fontSize=14;" parent="sNG5U-4dTfQpmakSV-AO-50" vertex="1">
          <mxGeometry y="5" width="13.333333333333336" height="15" as="geometry" />
        </mxCell>
        <mxCell id="sNG5U-4dTfQpmakSV-AO-54" value="Q" style="text;html=1;align=center;verticalAlign=middle;whiteSpace=wrap;rounded=0;fontSize=14;" parent="sNG5U-4dTfQpmakSV-AO-50" vertex="1">
          <mxGeometry x="26.66666666666667" y="5" width="13.333333333333336" height="15" as="geometry" />
        </mxCell>
        <mxCell id="sNG5U-4dTfQpmakSV-AO-55" value="" style="group;fontSize=14;" parent="1" vertex="1" connectable="0">
          <mxGeometry x="360" y="1260" width="40" height="60" as="geometry" />
        </mxCell>
        <mxCell id="sNG5U-4dTfQpmakSV-AO-56" value="" style="rounded=0;whiteSpace=wrap;html=1;fontSize=14;" parent="sNG5U-4dTfQpmakSV-AO-55" vertex="1">
          <mxGeometry width="40" height="60" as="geometry" />
        </mxCell>
        <mxCell id="sNG5U-4dTfQpmakSV-AO-57" value="" style="triangle;whiteSpace=wrap;html=1;direction=north;fontSize=14;" parent="sNG5U-4dTfQpmakSV-AO-55" vertex="1">
          <mxGeometry x="13.333333333333336" y="50" width="13.333333333333336" height="10" as="geometry" />
        </mxCell>
        <mxCell id="sNG5U-4dTfQpmakSV-AO-58" value="D" style="text;html=1;align=center;verticalAlign=middle;whiteSpace=wrap;rounded=0;fontSize=14;" parent="sNG5U-4dTfQpmakSV-AO-55" vertex="1">
          <mxGeometry y="5" width="13.333333333333336" height="15" as="geometry" />
        </mxCell>
        <mxCell id="sNG5U-4dTfQpmakSV-AO-59" value="Q" style="text;html=1;align=center;verticalAlign=middle;whiteSpace=wrap;rounded=0;fontSize=14;" parent="sNG5U-4dTfQpmakSV-AO-55" vertex="1">
          <mxGeometry x="26.66666666666667" y="5" width="13.333333333333336" height="15" as="geometry" />
        </mxCell>
        <mxCell id="sNG5U-4dTfQpmakSV-AO-60" value="" style="endArrow=classic;html=1;rounded=0;exitX=0.875;exitY=0.5;exitDx=0;exitDy=0;exitPerimeter=0;entryX=0;entryY=1;entryDx=0;entryDy=0;fontSize=14;" parent="1" source="sNG5U-4dTfQpmakSV-AO-39" target="sNG5U-4dTfQpmakSV-AO-53" edge="1">
          <mxGeometry width="50" height="50" relative="1" as="geometry">
            <mxPoint x="290" y="1170" as="sourcePoint" />
            <mxPoint x="340" y="1120" as="targetPoint" />
          </mxGeometry>
        </mxCell>
        <mxCell id="sNG5U-4dTfQpmakSV-AO-61" value="" style="endArrow=classic;html=1;rounded=0;exitX=0.875;exitY=0.5;exitDx=0;exitDy=0;exitPerimeter=0;entryX=0;entryY=1;entryDx=0;entryDy=0;fontSize=14;" parent="1" edge="1">
          <mxGeometry width="50" height="50" relative="1" as="geometry">
            <mxPoint x="321" y="1120" as="sourcePoint" />
            <mxPoint x="360" y="1120" as="targetPoint" />
          </mxGeometry>
        </mxCell>
        <mxCell id="sNG5U-4dTfQpmakSV-AO-63" value="Memory" style="rounded=0;whiteSpace=wrap;html=1;fontSize=14;" parent="1" vertex="1">
          <mxGeometry x="610" y="1153.75" width="130" height="120" as="geometry" />
        </mxCell>
        <mxCell id="sNG5U-4dTfQpmakSV-AO-64" value="" style="endArrow=classic;html=1;rounded=0;exitX=1;exitY=0.5;exitDx=0;exitDy=0;entryX=0.333;entryY=0.094;entryDx=0;entryDy=0;entryPerimeter=0;fontSize=14;" parent="1" source="sNG5U-4dTfQpmakSV-AO-49" target="sNG5U-4dTfQpmakSV-AO-65" edge="1">
          <mxGeometry width="50" height="50" relative="1" as="geometry">
            <mxPoint x="560" y="1170" as="sourcePoint" />
            <mxPoint x="470" y="1160" as="targetPoint" />
            <Array as="points">
              <mxPoint x="440" y="1113" />
            </Array>
          </mxGeometry>
        </mxCell>
        <mxCell id="sNG5U-4dTfQpmakSV-AO-65" value="+" style="ellipse;shape=cloud;whiteSpace=wrap;html=1;fontSize=14;" parent="1" vertex="1">
          <mxGeometry x="440" y="1153.75" width="70" height="77.5" as="geometry" />
        </mxCell>
        <mxCell id="sNG5U-4dTfQpmakSV-AO-66" value="" style="endArrow=classic;html=1;rounded=0;exitX=1.015;exitY=0.345;exitDx=0;exitDy=0;entryX=0.07;entryY=0.464;entryDx=0;entryDy=0;entryPerimeter=0;exitPerimeter=0;fontSize=14;" parent="1" source="sNG5U-4dTfQpmakSV-AO-54" target="sNG5U-4dTfQpmakSV-AO-65" edge="1">
          <mxGeometry width="50" height="50" relative="1" as="geometry">
            <mxPoint x="480" y="1240" as="sourcePoint" />
            <mxPoint x="530" y="1190" as="targetPoint" />
          </mxGeometry>
        </mxCell>
        <mxCell id="sNG5U-4dTfQpmakSV-AO-67" value="" style="endArrow=classic;html=1;rounded=0;exitX=1.006;exitY=0.355;exitDx=0;exitDy=0;exitPerimeter=0;entryX=0.333;entryY=0.844;entryDx=0;entryDy=0;entryPerimeter=0;fontSize=14;" parent="1" source="sNG5U-4dTfQpmakSV-AO-59" target="sNG5U-4dTfQpmakSV-AO-65" edge="1">
          <mxGeometry width="50" height="50" relative="1" as="geometry">
            <mxPoint x="480" y="1240" as="sourcePoint" />
            <mxPoint x="470" y="1230" as="targetPoint" />
            <Array as="points">
              <mxPoint x="440" y="1270" />
            </Array>
          </mxGeometry>
        </mxCell>
        <mxCell id="sNG5U-4dTfQpmakSV-AO-69" value="" style="group;fontSize=14;" parent="1" vertex="1" connectable="0">
          <mxGeometry x="380" y="1450" width="60" height="90" as="geometry" />
        </mxCell>
        <mxCell id="sNG5U-4dTfQpmakSV-AO-70" value="" style="rounded=0;whiteSpace=wrap;html=1;fontSize=14;" parent="sNG5U-4dTfQpmakSV-AO-69" vertex="1">
          <mxGeometry width="60" height="90" as="geometry" />
        </mxCell>
        <mxCell id="sNG5U-4dTfQpmakSV-AO-71" value="" style="triangle;whiteSpace=wrap;html=1;direction=north;fontSize=14;" parent="sNG5U-4dTfQpmakSV-AO-69" vertex="1">
          <mxGeometry x="20" y="75" width="20" height="15" as="geometry" />
        </mxCell>
        <mxCell id="sNG5U-4dTfQpmakSV-AO-72" value="D" style="text;html=1;align=center;verticalAlign=middle;whiteSpace=wrap;rounded=0;fontSize=14;" parent="sNG5U-4dTfQpmakSV-AO-69" vertex="1">
          <mxGeometry y="7.5" width="20" height="22.5" as="geometry" />
        </mxCell>
        <mxCell id="sNG5U-4dTfQpmakSV-AO-73" value="Q" style="text;html=1;align=center;verticalAlign=middle;whiteSpace=wrap;rounded=0;fontSize=14;" parent="sNG5U-4dTfQpmakSV-AO-69" vertex="1">
          <mxGeometry x="40" y="7.5" width="20" height="22.5" as="geometry" />
        </mxCell>
        <mxCell id="sNG5U-4dTfQpmakSV-AO-74" value="" style="endArrow=classic;html=1;rounded=0;fontSize=14;" parent="1" edge="1">
          <mxGeometry width="50" height="50" relative="1" as="geometry">
            <mxPoint x="350" y="1470" as="sourcePoint" />
            <mxPoint x="380" y="1470" as="targetPoint" />
          </mxGeometry>
        </mxCell>
        <mxCell id="sNG5U-4dTfQpmakSV-AO-75" value="" style="endArrow=classic;html=1;rounded=0;exitX=1.033;exitY=0.552;exitDx=0;exitDy=0;exitPerimeter=0;fontSize=14;" parent="1" source="sNG5U-4dTfQpmakSV-AO-73" edge="1">
          <mxGeometry width="50" height="50" relative="1" as="geometry">
            <mxPoint x="470" y="1510" as="sourcePoint" />
            <mxPoint x="490" y="1470" as="targetPoint" />
          </mxGeometry>
        </mxCell>
        <mxCell id="sNG5U-4dTfQpmakSV-AO-76" value="" style="group;fontSize=14;" parent="1" vertex="1" connectable="0">
          <mxGeometry x="320" y="1430" width="30" height="80" as="geometry" />
        </mxCell>
        <mxCell id="sNG5U-4dTfQpmakSV-AO-77" value="" style="shape=trapezoid;perimeter=trapezoidPerimeter;whiteSpace=wrap;html=1;fixedSize=1;direction=south;fontSize=14;" parent="sNG5U-4dTfQpmakSV-AO-76" vertex="1">
          <mxGeometry width="30" height="80" as="geometry" />
        </mxCell>
        <mxCell id="sNG5U-4dTfQpmakSV-AO-78" value="1" style="text;html=1;align=center;verticalAlign=middle;whiteSpace=wrap;rounded=0;fontSize=14;" parent="sNG5U-4dTfQpmakSV-AO-76" vertex="1">
          <mxGeometry y="20" width="20" height="10" as="geometry" />
        </mxCell>
        <mxCell id="sNG5U-4dTfQpmakSV-AO-79" value="0" style="text;html=1;align=center;verticalAlign=middle;whiteSpace=wrap;rounded=0;fontSize=14;" parent="sNG5U-4dTfQpmakSV-AO-76" vertex="1">
          <mxGeometry y="50" width="20" height="10" as="geometry" />
        </mxCell>
        <mxCell id="sNG5U-4dTfQpmakSV-AO-80" value="" style="endArrow=classic;html=1;rounded=0;entryX=0;entryY=0.25;entryDx=0;entryDy=0;fontSize=14;" parent="1" target="sNG5U-4dTfQpmakSV-AO-77" edge="1">
          <mxGeometry width="50" height="50" relative="1" as="geometry">
            <mxPoint x="340" y="1420" as="sourcePoint" />
            <mxPoint x="400" y="1410" as="targetPoint" />
          </mxGeometry>
        </mxCell>
        <mxCell id="sNG5U-4dTfQpmakSV-AO-81" value="reset_en" style="text;html=1;align=center;verticalAlign=middle;whiteSpace=wrap;rounded=0;fontSize=14;" parent="1" vertex="1">
          <mxGeometry x="310" y="1400" width="60" height="30" as="geometry" />
        </mxCell>
        <mxCell id="sNG5U-4dTfQpmakSV-AO-82" value="" style="endArrow=classic;html=1;rounded=0;entryX=0;entryY=0.5;entryDx=0;entryDy=0;fontSize=14;" parent="1" target="sNG5U-4dTfQpmakSV-AO-78" edge="1">
          <mxGeometry width="50" height="50" relative="1" as="geometry">
            <mxPoint x="290" y="1455" as="sourcePoint" />
            <mxPoint x="325" y="1420" as="targetPoint" />
          </mxGeometry>
        </mxCell>
        <mxCell id="sNG5U-4dTfQpmakSV-AO-83" value="0" style="text;html=1;align=center;verticalAlign=middle;whiteSpace=wrap;rounded=0;fontSize=14;" parent="1" vertex="1">
          <mxGeometry x="250" y="1430" width="60" height="30" as="geometry" />
        </mxCell>
        <mxCell id="sNG5U-4dTfQpmakSV-AO-84" value="" style="endArrow=classic;html=1;rounded=0;entryX=0;entryY=0.5;entryDx=0;entryDy=0;fontSize=14;" parent="1" target="sNG5U-4dTfQpmakSV-AO-79" edge="1">
          <mxGeometry width="50" height="50" relative="1" as="geometry">
            <mxPoint x="270" y="1485" as="sourcePoint" />
            <mxPoint x="305" y="1445" as="targetPoint" />
          </mxGeometry>
        </mxCell>
        <mxCell id="sNG5U-4dTfQpmakSV-AO-85" value="" style="group;fontSize=14;" parent="1" vertex="1" connectable="0">
          <mxGeometry x="240" y="1450" width="30" height="80" as="geometry" />
        </mxCell>
        <mxCell id="sNG5U-4dTfQpmakSV-AO-86" value="" style="shape=trapezoid;perimeter=trapezoidPerimeter;whiteSpace=wrap;html=1;fixedSize=1;direction=south;fontSize=14;" parent="sNG5U-4dTfQpmakSV-AO-85" vertex="1">
          <mxGeometry width="30" height="80" as="geometry" />
        </mxCell>
        <mxCell id="sNG5U-4dTfQpmakSV-AO-87" value="1" style="text;html=1;align=center;verticalAlign=middle;whiteSpace=wrap;rounded=0;fontSize=14;" parent="sNG5U-4dTfQpmakSV-AO-85" vertex="1">
          <mxGeometry y="20" width="20" height="10" as="geometry" />
        </mxCell>
        <mxCell id="sNG5U-4dTfQpmakSV-AO-88" value="0" style="text;html=1;align=center;verticalAlign=middle;whiteSpace=wrap;rounded=0;fontSize=14;" parent="sNG5U-4dTfQpmakSV-AO-85" vertex="1">
          <mxGeometry y="50" width="20" height="10" as="geometry" />
        </mxCell>
        <mxCell id="sNG5U-4dTfQpmakSV-AO-90" value="reset_index[7:0]" style="text;html=1;align=center;verticalAlign=middle;whiteSpace=wrap;rounded=0;fontSize=14;" parent="1" vertex="1">
          <mxGeometry x="445" y="1415" width="60" height="30" as="geometry" />
        </mxCell>
        <mxCell id="sNG5U-4dTfQpmakSV-AO-91" value="" style="endArrow=classic;html=1;rounded=0;fontSize=14;" parent="1" edge="1">
          <mxGeometry width="50" height="50" relative="1" as="geometry">
            <mxPoint x="210" y="1510" as="sourcePoint" />
            <mxPoint x="220" y="1470" as="targetPoint" />
            <Array as="points">
              <mxPoint x="210" y="1470" />
            </Array>
          </mxGeometry>
        </mxCell>
        <mxCell id="sNG5U-4dTfQpmakSV-AO-92" value="+1" style="text;html=1;align=center;verticalAlign=middle;whiteSpace=wrap;rounded=0;fontSize=14;" parent="1" vertex="1">
          <mxGeometry x="225" y="1460" width="10" height="20" as="geometry" />
        </mxCell>
        <mxCell id="sNG5U-4dTfQpmakSV-AO-100" value="== 200" style="ellipse;shape=cloud;whiteSpace=wrap;html=1;fontSize=14;" parent="1" vertex="1">
          <mxGeometry x="472.5" y="1435" width="125" height="65" as="geometry" />
        </mxCell>
        <mxCell id="sNG5U-4dTfQpmakSV-AO-102" value="" style="endArrow=classic;html=1;rounded=0;entryX=0.144;entryY=0.382;entryDx=0;entryDy=0;entryPerimeter=0;fontSize=14;" parent="1" target="sNG5U-4dTfQpmakSV-AO-86" edge="1">
          <mxGeometry width="50" height="50" relative="1" as="geometry">
            <mxPoint x="260" y="1410" as="sourcePoint" />
            <mxPoint x="300" y="1350" as="targetPoint" />
          </mxGeometry>
        </mxCell>
        <mxCell id="sNG5U-4dTfQpmakSV-AO-103" value="" style="endArrow=classic;html=1;rounded=0;exitX=1.017;exitY=0.556;exitDx=0;exitDy=0;exitPerimeter=0;entryX=-0.026;entryY=0.934;entryDx=0;entryDy=0;fontSize=14;entryPerimeter=0;" parent="1" source="sNG5U-4dTfQpmakSV-AO-73" target="sNG5U-4dTfQpmakSV-AO-88" edge="1">
          <mxGeometry width="50" height="50" relative="1" as="geometry">
            <mxPoint x="475" y="1560" as="sourcePoint" />
            <mxPoint x="100" y="1560" as="targetPoint" />
            <Array as="points">
              <mxPoint x="460" y="1470" />
              <mxPoint x="460" y="1560" />
              <mxPoint x="210" y="1560" />
              <mxPoint x="210" y="1510" />
            </Array>
          </mxGeometry>
        </mxCell>
        <mxCell id="sNG5U-4dTfQpmakSV-AO-104" value="" style="endArrow=classic;html=1;rounded=0;exitX=0.917;exitY=0.543;exitDx=0;exitDy=0;exitPerimeter=0;fontSize=14;" parent="1" source="sNG5U-4dTfQpmakSV-AO-100" edge="1">
          <mxGeometry width="50" height="50" relative="1" as="geometry">
            <mxPoint x="597.5" y="1470" as="sourcePoint" />
            <mxPoint x="620" y="1470" as="targetPoint" />
          </mxGeometry>
        </mxCell>
        <mxCell id="sNG5U-4dTfQpmakSV-AO-105" value="reset_done" style="text;html=1;align=center;verticalAlign=middle;whiteSpace=wrap;rounded=0;fontSize=14;" parent="1" vertex="1">
          <mxGeometry x="590" y="1440" width="60" height="30" as="geometry" />
        </mxCell>
        <mxCell id="sNG5U-4dTfQpmakSV-AO-107" value="&amp;lt; 200" style="ellipse;shape=cloud;whiteSpace=wrap;html=1;fontSize=14;" parent="1" vertex="1">
          <mxGeometry x="200" y="1350" width="125" height="65" as="geometry" />
        </mxCell>
        <mxCell id="sNG5U-4dTfQpmakSV-AO-108" value="" style="endArrow=classic;html=1;rounded=0;entryX=0.882;entryY=0.466;entryDx=0;entryDy=0;entryPerimeter=0;fontSize=14;" parent="1" target="sNG5U-4dTfQpmakSV-AO-107" edge="1">
          <mxGeometry width="50" height="50" relative="1" as="geometry">
            <mxPoint x="460" y="1470" as="sourcePoint" />
            <mxPoint x="570" y="1385" as="targetPoint" />
            <Array as="points">
              <mxPoint x="460" y="1380" />
            </Array>
          </mxGeometry>
        </mxCell>
        <mxCell id="sNG5U-4dTfQpmakSV-AO-111" value="wren" style="text;html=1;align=center;verticalAlign=middle;whiteSpace=wrap;rounded=0;fontSize=14;" parent="1" vertex="1">
          <mxGeometry x="610" y="1243.75" width="60" height="30" as="geometry" />
        </mxCell>
        <mxCell id="sNG5U-4dTfQpmakSV-AO-117" value="" style="endArrow=classic;html=1;rounded=0;entryX=0.321;entryY=1.045;entryDx=0;entryDy=0;entryPerimeter=0;fontSize=14;" parent="1" target="sNG5U-4dTfQpmakSV-AO-111" edge="1">
          <mxGeometry width="50" height="50" relative="1" as="geometry">
            <mxPoint x="630" y="1320" as="sourcePoint" />
            <mxPoint x="630" y="1280" as="targetPoint" />
          </mxGeometry>
        </mxCell>
        <mxCell id="sNG5U-4dTfQpmakSV-AO-118" value="|" style="ellipse;shape=cloud;whiteSpace=wrap;html=1;fontSize=14;" parent="1" vertex="1">
          <mxGeometry x="570" y="1310" width="120" height="80" as="geometry" />
        </mxCell>
        <mxCell id="sNG5U-4dTfQpmakSV-AO-119" value="" style="endArrow=classic;html=1;rounded=0;entryX=0.046;entryY=0.397;entryDx=0;entryDy=0;entryPerimeter=0;exitX=0.724;exitY=0.166;exitDx=0;exitDy=0;exitPerimeter=0;fontSize=14;" parent="1" source="sNG5U-4dTfQpmakSV-AO-107" target="sNG5U-4dTfQpmakSV-AO-118" edge="1">
          <mxGeometry width="50" height="50" relative="1" as="geometry">
            <mxPoint x="440" y="1370" as="sourcePoint" />
            <mxPoint x="490" y="1320" as="targetPoint" />
            <Array as="points">
              <mxPoint x="290" y="1340" />
            </Array>
          </mxGeometry>
        </mxCell>
        <mxCell id="sNG5U-4dTfQpmakSV-AO-120" value="" style="endArrow=classic;html=1;rounded=0;entryX=0.579;entryY=0.959;entryDx=0;entryDy=0;entryPerimeter=0;fontSize=14;" parent="1" target="sNG5U-4dTfQpmakSV-AO-118" edge="1">
          <mxGeometry width="50" height="50" relative="1" as="geometry">
            <mxPoint x="640" y="1430" as="sourcePoint" />
            <mxPoint x="640" y="1390" as="targetPoint" />
          </mxGeometry>
        </mxCell>
        <mxCell id="sNG5U-4dTfQpmakSV-AO-121" value="count_en" style="text;html=1;align=center;verticalAlign=middle;whiteSpace=wrap;rounded=0;fontSize=14;" parent="1" vertex="1">
          <mxGeometry x="640" y="1400" width="60" height="30" as="geometry" />
        </mxCell>
        <mxCell id="sNG5U-4dTfQpmakSV-AO-122" value="w_data" style="text;html=1;align=center;verticalAlign=middle;whiteSpace=wrap;rounded=0;fontSize=14;" parent="1" vertex="1">
          <mxGeometry x="610" y="1160" width="60" height="30" as="geometry" />
        </mxCell>
        <mxCell id="sNG5U-4dTfQpmakSV-AO-123" value="" style="endArrow=classic;html=1;rounded=0;entryX=0.013;entryY=0.5;entryDx=0;entryDy=0;entryPerimeter=0;fontSize=14;" parent="1" edge="1">
          <mxGeometry width="50" height="50" relative="1" as="geometry">
            <mxPoint x="579.22" y="1239.52" as="sourcePoint" />
            <mxPoint x="610" y="1239.52" as="targetPoint" />
          </mxGeometry>
        </mxCell>
        <mxCell id="_nE7f_Leut5tjlK63jvd-1" value="" style="endArrow=classic;html=1;rounded=0;entryX=0.321;entryY=1.045;entryDx=0;entryDy=0;entryPerimeter=0;fontSize=14;" parent="1" edge="1">
          <mxGeometry width="50" height="50" relative="1" as="geometry">
            <mxPoint x="721" y="1318.75" as="sourcePoint" />
            <mxPoint x="720" y="1273.75" as="targetPoint" />
          </mxGeometry>
        </mxCell>
        <mxCell id="_nE7f_Leut5tjlK63jvd-2" value="|" style="ellipse;shape=cloud;whiteSpace=wrap;html=1;fontSize=14;" parent="1" vertex="1">
          <mxGeometry x="680" y="1310" width="90" height="70" as="geometry" />
        </mxCell>
        <mxCell id="_nE7f_Leut5tjlK63jvd-3" value="" style="endArrow=classic;html=1;rounded=0;entryX=0.875;entryY=0.5;entryDx=0;entryDy=0;entryPerimeter=0;fontSize=14;" parent="1" target="_nE7f_Leut5tjlK63jvd-2" edge="1">
          <mxGeometry width="50" height="50" relative="1" as="geometry">
            <mxPoint x="790" y="1345" as="sourcePoint" />
            <mxPoint x="830" y="1365" as="targetPoint" />
          </mxGeometry>
        </mxCell>
        <mxCell id="_nE7f_Leut5tjlK63jvd-4" value="read_en_d" style="text;html=1;align=center;verticalAlign=middle;whiteSpace=wrap;rounded=0;fontSize=14;" parent="1" vertex="1">
          <mxGeometry x="768" y="1320" width="60" height="30" as="geometry" />
        </mxCell>
        <mxCell id="_nE7f_Leut5tjlK63jvd-5" value="" style="endArrow=classic;html=1;rounded=0;entryX=0.55;entryY=0.95;entryDx=0;entryDy=0;entryPerimeter=0;fontSize=14;" parent="1" target="_nE7f_Leut5tjlK63jvd-2" edge="1">
          <mxGeometry width="50" height="50" relative="1" as="geometry">
            <mxPoint x="730" y="1430" as="sourcePoint" />
            <mxPoint x="760" y="1395" as="targetPoint" />
          </mxGeometry>
        </mxCell>
        <mxCell id="_nE7f_Leut5tjlK63jvd-6" value="count_en" style="text;html=1;align=center;verticalAlign=middle;whiteSpace=wrap;rounded=0;fontSize=14;" parent="1" vertex="1">
          <mxGeometry x="720" y="1400" width="60" height="30" as="geometry" />
        </mxCell>
        <mxCell id="_nE7f_Leut5tjlK63jvd-7" value="" style="group;fontSize=14;" parent="1" vertex="1" connectable="0">
          <mxGeometry x="550" y="1200" width="30" height="80" as="geometry" />
        </mxCell>
        <mxCell id="_nE7f_Leut5tjlK63jvd-9" value="0" style="text;html=1;align=center;verticalAlign=middle;whiteSpace=wrap;rounded=0;fontSize=14;" parent="_nE7f_Leut5tjlK63jvd-7" vertex="1">
          <mxGeometry y="20" width="20" height="10" as="geometry" />
        </mxCell>
        <mxCell id="_nE7f_Leut5tjlK63jvd-12" value="" style="endArrow=classic;html=1;rounded=0;entryX=0.101;entryY=0.379;entryDx=0;entryDy=0;entryPerimeter=0;fontSize=14;" parent="1" edge="1">
          <mxGeometry width="50" height="50" relative="1" as="geometry">
            <mxPoint x="520" y="1341.25" as="sourcePoint" />
            <mxPoint x="568.6300000000001" y="1209.33" as="targetPoint" />
            <Array as="points">
              <mxPoint x="520" y="1151.25" />
              <mxPoint x="570" y="1151.25" />
            </Array>
          </mxGeometry>
        </mxCell>
        <mxCell id="_nE7f_Leut5tjlK63jvd-13" value="" style="endArrow=classic;html=1;rounded=0;entryX=0;entryY=1;entryDx=0;entryDy=0;fontSize=14;" parent="1" target="_nE7f_Leut5tjlK63jvd-10" edge="1">
          <mxGeometry width="50" height="50" relative="1" as="geometry">
            <mxPoint x="470" y="1470" as="sourcePoint" />
            <mxPoint x="620" y="1200" as="targetPoint" />
            <Array as="points">
              <mxPoint x="470" y="1310" />
              <mxPoint x="530" y="1310" />
              <mxPoint x="530" y="1260" />
            </Array>
          </mxGeometry>
        </mxCell>
        <mxCell id="_nE7f_Leut5tjlK63jvd-14" value="" style="endArrow=classic;html=1;rounded=0;exitX=0.899;exitY=0.469;exitDx=0;exitDy=0;exitPerimeter=0;entryX=0;entryY=0;entryDx=0;entryDy=0;fontSize=14;" parent="1" source="sNG5U-4dTfQpmakSV-AO-65" target="_nE7f_Leut5tjlK63jvd-9" edge="1">
          <mxGeometry width="50" height="50" relative="1" as="geometry">
            <mxPoint x="580" y="1250" as="sourcePoint" />
            <mxPoint x="630" y="1200" as="targetPoint" />
            <Array as="points">
              <mxPoint x="510" y="1190" />
              <mxPoint x="530" y="1190" />
              <mxPoint x="530" y="1220" />
            </Array>
          </mxGeometry>
        </mxCell>
        <mxCell id="_nE7f_Leut5tjlK63jvd-15" value="r_data" style="text;html=1;align=center;verticalAlign=middle;whiteSpace=wrap;rounded=0;fontSize=14;" parent="1" vertex="1">
          <mxGeometry x="695" y="1160" width="45" height="30" as="geometry" />
        </mxCell>
        <mxCell id="_nE7f_Leut5tjlK63jvd-16" value="ren" style="text;html=1;align=center;verticalAlign=middle;whiteSpace=wrap;rounded=0;fontSize=14;" parent="1" vertex="1">
          <mxGeometry x="685" y="1243.75" width="60" height="30" as="geometry" />
        </mxCell>
        <mxCell id="_nE7f_Leut5tjlK63jvd-19" value="w_addr" style="text;html=1;align=center;verticalAlign=middle;whiteSpace=wrap;rounded=0;fontSize=14;" parent="1" vertex="1">
          <mxGeometry x="610" y="1220" width="50" height="30" as="geometry" />
        </mxCell>
        <mxCell id="_nE7f_Leut5tjlK63jvd-21" value="r_addr" style="text;html=1;align=center;verticalAlign=middle;whiteSpace=wrap;rounded=0;fontSize=14;" parent="1" vertex="1">
          <mxGeometry x="692.5" y="1220" width="50" height="28.75" as="geometry" />
        </mxCell>
        <mxCell id="_nE7f_Leut5tjlK63jvd-10" value="1" style="text;html=1;align=center;verticalAlign=middle;whiteSpace=wrap;rounded=0;fontSize=14;" parent="1" vertex="1">
          <mxGeometry x="550" y="1250" width="20" height="10" as="geometry" />
        </mxCell>
        <mxCell id="_nE7f_Leut5tjlK63jvd-23" value="" style="shape=trapezoid;perimeter=trapezoidPerimeter;whiteSpace=wrap;html=1;fixedSize=1;direction=north;fontSize=14;" parent="1" vertex="1">
          <mxGeometry x="760" y="1200" width="30" height="80" as="geometry" />
        </mxCell>
        <mxCell id="_nE7f_Leut5tjlK63jvd-24" value="" style="endArrow=classic;html=1;rounded=0;exitX=0.5;exitY=0;exitDx=0;exitDy=0;entryX=0.964;entryY=0.699;entryDx=0;entryDy=0;entryPerimeter=0;fontSize=14;" parent="1" source="_nE7f_Leut5tjlK63jvd-23" target="_nE7f_Leut5tjlK63jvd-21" edge="1">
          <mxGeometry width="50" height="50" relative="1" as="geometry">
            <mxPoint x="670" y="1280" as="sourcePoint" />
            <mxPoint x="720" y="1230" as="targetPoint" />
          </mxGeometry>
        </mxCell>
        <mxCell id="_nE7f_Leut5tjlK63jvd-25" value="1" style="text;html=1;align=center;verticalAlign=middle;whiteSpace=wrap;rounded=0;fontSize=14;" parent="1" vertex="1">
          <mxGeometry x="765" y="1220" width="20" height="10" as="geometry" />
        </mxCell>
        <mxCell id="_nE7f_Leut5tjlK63jvd-26" value="0" style="text;html=1;align=center;verticalAlign=middle;whiteSpace=wrap;rounded=0;fontSize=14;" parent="1" vertex="1">
          <mxGeometry x="765" y="1250" width="20" height="10" as="geometry" />
        </mxCell>
        <mxCell id="_nE7f_Leut5tjlK63jvd-27" value="" style="endArrow=classic;html=1;rounded=0;entryX=1;entryY=0.5;entryDx=0;entryDy=0;fontSize=14;" parent="1" target="_nE7f_Leut5tjlK63jvd-23" edge="1">
          <mxGeometry width="50" height="50" relative="1" as="geometry">
            <mxPoint x="775" y="1190" as="sourcePoint" />
            <mxPoint x="810" y="1150" as="targetPoint" />
          </mxGeometry>
        </mxCell>
        <mxCell id="_nE7f_Leut5tjlK63jvd-28" value="" style="endArrow=classic;html=1;rounded=0;exitX=0.8;exitY=0.8;exitDx=0;exitDy=0;exitPerimeter=0;entryX=0.25;entryY=1;entryDx=0;entryDy=0;fillColor=#fff2cc;strokeColor=#d6b656;fontSize=14;" parent="1" source="sNG5U-4dTfQpmakSV-AO-65" target="_nE7f_Leut5tjlK63jvd-23" edge="1">
          <mxGeometry width="50" height="50" relative="1" as="geometry">
            <mxPoint x="710" y="1280" as="sourcePoint" />
            <mxPoint x="760" y="1230" as="targetPoint" />
            <Array as="points">
              <mxPoint x="510" y="1280" />
              <mxPoint x="810" y="1280" />
              <mxPoint x="810" y="1260" />
            </Array>
          </mxGeometry>
        </mxCell>
        <mxCell id="_nE7f_Leut5tjlK63jvd-31" value="read_en_d" style="text;html=1;align=center;verticalAlign=middle;whiteSpace=wrap;rounded=0;fontSize=14;" parent="1" vertex="1">
          <mxGeometry x="773" y="1170" width="60" height="30" as="geometry" />
        </mxCell>
        <mxCell id="_nE7f_Leut5tjlK63jvd-32" value="" style="group;fontSize=14;" parent="1" vertex="1" connectable="0">
          <mxGeometry x="490" y="960" width="60" height="90" as="geometry" />
        </mxCell>
        <mxCell id="_nE7f_Leut5tjlK63jvd-33" value="" style="rounded=0;whiteSpace=wrap;html=1;fontSize=14;" parent="_nE7f_Leut5tjlK63jvd-32" vertex="1">
          <mxGeometry width="60" height="90" as="geometry" />
        </mxCell>
        <mxCell id="_nE7f_Leut5tjlK63jvd-34" value="" style="triangle;whiteSpace=wrap;html=1;direction=north;fontSize=14;" parent="_nE7f_Leut5tjlK63jvd-32" vertex="1">
          <mxGeometry x="20" y="75" width="20" height="15" as="geometry" />
        </mxCell>
        <mxCell id="_nE7f_Leut5tjlK63jvd-35" value="D" style="text;html=1;align=center;verticalAlign=middle;whiteSpace=wrap;rounded=0;fontSize=14;" parent="_nE7f_Leut5tjlK63jvd-32" vertex="1">
          <mxGeometry y="7.5" width="20" height="22.5" as="geometry" />
        </mxCell>
        <mxCell id="_nE7f_Leut5tjlK63jvd-36" value="Q" style="text;html=1;align=center;verticalAlign=middle;whiteSpace=wrap;rounded=0;fontSize=14;" parent="_nE7f_Leut5tjlK63jvd-32" vertex="1">
          <mxGeometry x="40" y="7.5" width="20" height="22.5" as="geometry" />
        </mxCell>
        <mxCell id="_nE7f_Leut5tjlK63jvd-37" value="" style="endArrow=classic;html=1;rounded=0;fontSize=14;" parent="1" edge="1">
          <mxGeometry width="50" height="50" relative="1" as="geometry">
            <mxPoint x="460" y="980" as="sourcePoint" />
            <mxPoint x="490" y="980" as="targetPoint" />
          </mxGeometry>
        </mxCell>
        <mxCell id="_nE7f_Leut5tjlK63jvd-38" value="" style="endArrow=classic;html=1;rounded=0;exitX=1.033;exitY=0.552;exitDx=0;exitDy=0;exitPerimeter=0;fontSize=14;" parent="1" source="_nE7f_Leut5tjlK63jvd-36" edge="1">
          <mxGeometry width="50" height="50" relative="1" as="geometry">
            <mxPoint x="580" y="1020" as="sourcePoint" />
            <mxPoint x="600" y="980" as="targetPoint" />
          </mxGeometry>
        </mxCell>
        <mxCell id="_nE7f_Leut5tjlK63jvd-39" value="" style="group;fontSize=14;" parent="1" vertex="1" connectable="0">
          <mxGeometry x="430" y="940" width="30" height="80" as="geometry" />
        </mxCell>
        <mxCell id="_nE7f_Leut5tjlK63jvd-40" value="" style="shape=trapezoid;perimeter=trapezoidPerimeter;whiteSpace=wrap;html=1;fixedSize=1;direction=south;fontSize=14;" parent="_nE7f_Leut5tjlK63jvd-39" vertex="1">
          <mxGeometry width="30" height="80" as="geometry" />
        </mxCell>
        <mxCell id="_nE7f_Leut5tjlK63jvd-41" value="1" style="text;html=1;align=center;verticalAlign=middle;whiteSpace=wrap;rounded=0;fontSize=14;" parent="_nE7f_Leut5tjlK63jvd-39" vertex="1">
          <mxGeometry y="20" width="20" height="10" as="geometry" />
        </mxCell>
        <mxCell id="_nE7f_Leut5tjlK63jvd-42" value="0" style="text;html=1;align=center;verticalAlign=middle;whiteSpace=wrap;rounded=0;fontSize=14;" parent="_nE7f_Leut5tjlK63jvd-39" vertex="1">
          <mxGeometry y="50" width="20" height="10" as="geometry" />
        </mxCell>
        <mxCell id="_nE7f_Leut5tjlK63jvd-43" value="" style="endArrow=classic;html=1;rounded=0;entryX=0;entryY=0.25;entryDx=0;entryDy=0;fontSize=14;" parent="1" target="_nE7f_Leut5tjlK63jvd-40" edge="1">
          <mxGeometry width="50" height="50" relative="1" as="geometry">
            <mxPoint x="450" y="930" as="sourcePoint" />
            <mxPoint x="510" y="920" as="targetPoint" />
          </mxGeometry>
        </mxCell>
        <mxCell id="_nE7f_Leut5tjlK63jvd-44" value="reset_en" style="text;html=1;align=center;verticalAlign=middle;whiteSpace=wrap;rounded=0;fontSize=14;" parent="1" vertex="1">
          <mxGeometry x="420" y="910" width="60" height="30" as="geometry" />
        </mxCell>
        <mxCell id="_nE7f_Leut5tjlK63jvd-45" value="" style="endArrow=classic;html=1;rounded=0;entryX=0;entryY=0.5;entryDx=0;entryDy=0;fontSize=14;" parent="1" target="_nE7f_Leut5tjlK63jvd-41" edge="1">
          <mxGeometry width="50" height="50" relative="1" as="geometry">
            <mxPoint x="400" y="965" as="sourcePoint" />
            <mxPoint x="435" y="930" as="targetPoint" />
          </mxGeometry>
        </mxCell>
        <mxCell id="_nE7f_Leut5tjlK63jvd-46" value="0" style="text;html=1;align=center;verticalAlign=middle;whiteSpace=wrap;rounded=0;fontSize=14;" parent="1" vertex="1">
          <mxGeometry x="360" y="940" width="60" height="30" as="geometry" />
        </mxCell>
        <mxCell id="_nE7f_Leut5tjlK63jvd-47" value="" style="endArrow=classic;html=1;rounded=0;entryX=0;entryY=0.5;entryDx=0;entryDy=0;fontSize=14;" parent="1" target="_nE7f_Leut5tjlK63jvd-42" edge="1">
          <mxGeometry width="50" height="50" relative="1" as="geometry">
            <mxPoint x="380" y="995" as="sourcePoint" />
            <mxPoint x="415" y="955" as="targetPoint" />
          </mxGeometry>
        </mxCell>
        <mxCell id="_nE7f_Leut5tjlK63jvd-48" value="" style="group;fontSize=14;" parent="1" vertex="1" connectable="0">
          <mxGeometry x="350" y="960" width="30" height="80" as="geometry" />
        </mxCell>
        <mxCell id="_nE7f_Leut5tjlK63jvd-49" value="" style="shape=trapezoid;perimeter=trapezoidPerimeter;whiteSpace=wrap;html=1;fixedSize=1;direction=south;fontSize=14;" parent="_nE7f_Leut5tjlK63jvd-48" vertex="1">
          <mxGeometry width="30" height="80" as="geometry" />
        </mxCell>
        <mxCell id="_nE7f_Leut5tjlK63jvd-50" value="1" style="text;html=1;align=center;verticalAlign=middle;whiteSpace=wrap;rounded=0;fontSize=14;" parent="_nE7f_Leut5tjlK63jvd-48" vertex="1">
          <mxGeometry y="20" width="20" height="10" as="geometry" />
        </mxCell>
        <mxCell id="_nE7f_Leut5tjlK63jvd-51" value="0" style="text;html=1;align=center;verticalAlign=middle;whiteSpace=wrap;rounded=0;fontSize=14;" parent="_nE7f_Leut5tjlK63jvd-48" vertex="1">
          <mxGeometry y="50" width="20" height="10" as="geometry" />
        </mxCell>
        <mxCell id="_nE7f_Leut5tjlK63jvd-52" value="read_index[7:0]" style="text;html=1;align=center;verticalAlign=middle;whiteSpace=wrap;rounded=0;fontSize=14;" parent="1" vertex="1">
          <mxGeometry x="555" y="925" width="60" height="30" as="geometry" />
        </mxCell>
        <mxCell id="_nE7f_Leut5tjlK63jvd-53" value="" style="endArrow=classic;html=1;rounded=0;fontSize=14;" parent="1" edge="1">
          <mxGeometry width="50" height="50" relative="1" as="geometry">
            <mxPoint x="320" y="1020" as="sourcePoint" />
            <mxPoint x="330" y="980" as="targetPoint" />
            <Array as="points">
              <mxPoint x="320" y="980" />
            </Array>
          </mxGeometry>
        </mxCell>
        <mxCell id="_nE7f_Leut5tjlK63jvd-54" value="+1" style="text;html=1;align=center;verticalAlign=middle;whiteSpace=wrap;rounded=0;fontSize=14;" parent="1" vertex="1">
          <mxGeometry x="335" y="970" width="10" height="20" as="geometry" />
        </mxCell>
        <mxCell id="_nE7f_Leut5tjlK63jvd-56" value="" style="endArrow=classic;html=1;rounded=0;entryX=0.154;entryY=0.349;entryDx=0;entryDy=0;entryPerimeter=0;fontSize=14;" parent="1" target="_nE7f_Leut5tjlK63jvd-49" edge="1">
          <mxGeometry width="50" height="50" relative="1" as="geometry">
            <mxPoint x="370" y="930" as="sourcePoint" />
            <mxPoint x="410" y="860" as="targetPoint" />
          </mxGeometry>
        </mxCell>
        <mxCell id="_nE7f_Leut5tjlK63jvd-57" value="" style="endArrow=classic;html=1;rounded=0;exitX=1.017;exitY=0.556;exitDx=0;exitDy=0;exitPerimeter=0;entryX=-0.026;entryY=0.934;entryDx=0;entryDy=0;fontSize=14;entryPerimeter=0;" parent="1" source="_nE7f_Leut5tjlK63jvd-36" target="_nE7f_Leut5tjlK63jvd-51" edge="1">
          <mxGeometry width="50" height="50" relative="1" as="geometry">
            <mxPoint x="585" y="1070" as="sourcePoint" />
            <mxPoint x="210" y="1070" as="targetPoint" />
            <Array as="points">
              <mxPoint x="570" y="980" />
              <mxPoint x="570" y="1070" />
              <mxPoint x="320" y="1070" />
              <mxPoint x="320" y="1020" />
            </Array>
          </mxGeometry>
        </mxCell>
        <mxCell id="_nE7f_Leut5tjlK63jvd-63" value="read_en_d" style="text;html=1;align=center;verticalAlign=middle;whiteSpace=wrap;rounded=0;fontSize=14;" parent="1" vertex="1">
          <mxGeometry x="342.5" y="910" width="60" height="30" as="geometry" />
        </mxCell>
        <mxCell id="_nE7f_Leut5tjlK63jvd-64" value="&amp;gt; 198" style="ellipse;shape=cloud;whiteSpace=wrap;html=1;fontSize=14;" parent="1" vertex="1">
          <mxGeometry x="583" y="940" width="125" height="65" as="geometry" />
        </mxCell>
        <mxCell id="_nE7f_Leut5tjlK63jvd-65" value="" style="endArrow=classic;html=1;rounded=0;exitX=0.954;exitY=0.612;exitDx=0;exitDy=0;exitPerimeter=0;fontSize=14;" parent="1" source="_nE7f_Leut5tjlK63jvd-64" edge="1">
          <mxGeometry width="50" height="50" relative="1" as="geometry">
            <mxPoint x="710" y="1030" as="sourcePoint" />
            <mxPoint x="730" y="980" as="targetPoint" />
          </mxGeometry>
        </mxCell>
        <mxCell id="_nE7f_Leut5tjlK63jvd-67" value="done_read" style="text;html=1;align=center;verticalAlign=middle;whiteSpace=wrap;rounded=0;fontSize=14;" parent="1" vertex="1">
          <mxGeometry x="692.5" y="955" width="60" height="30" as="geometry" />
        </mxCell>
        <mxCell id="_nE7f_Leut5tjlK63jvd-68" value="" style="endArrow=classic;html=1;rounded=0;entryX=0.75;entryY=1;entryDx=0;entryDy=0;fontSize=14;" parent="1" target="_nE7f_Leut5tjlK63jvd-23" edge="1">
          <mxGeometry width="50" height="50" relative="1" as="geometry">
            <mxPoint x="570" y="980" as="sourcePoint" />
            <mxPoint x="728" y="1060" as="targetPoint" />
            <Array as="points">
              <mxPoint x="570" y="1070" />
              <mxPoint x="810" y="1070" />
              <mxPoint x="810" y="1220" />
            </Array>
          </mxGeometry>
        </mxCell>
        <mxCell id="_nE7f_Leut5tjlK63jvd-71" value="" style="endArrow=classic;html=1;rounded=0;exitX=1;exitY=0.5;exitDx=0;exitDy=0;entryX=0.692;entryY=1.026;entryDx=0;entryDy=0;entryPerimeter=0;fontSize=14;" parent="1" source="_nE7f_Leut5tjlK63jvd-15" target="_nE7f_Leut5tjlK63jvd-73" edge="1">
          <mxGeometry width="50" height="50" relative="1" as="geometry">
            <mxPoint x="745" y="1160" as="sourcePoint" />
            <mxPoint x="700" y="1110" as="targetPoint" />
            <Array as="points">
              <mxPoint x="770" y="1175" />
              <mxPoint x="770" y="1120" />
              <mxPoint x="770" y="1060" />
              <mxPoint x="540" y="1060" />
              <mxPoint x="540" y="1135" />
            </Array>
          </mxGeometry>
        </mxCell>
        <mxCell id="_nE7f_Leut5tjlK63jvd-72" value="" style="group;fontSize=14;" parent="1" vertex="1" connectable="0">
          <mxGeometry x="580" y="1080" width="30" height="80" as="geometry" />
        </mxCell>
        <mxCell id="_nE7f_Leut5tjlK63jvd-73" value="" style="shape=trapezoid;perimeter=trapezoidPerimeter;whiteSpace=wrap;html=1;fixedSize=1;direction=south;fontSize=14;" parent="_nE7f_Leut5tjlK63jvd-72" vertex="1">
          <mxGeometry width="30" height="80" as="geometry" />
        </mxCell>
        <mxCell id="_nE7f_Leut5tjlK63jvd-74" value="1" style="text;html=1;align=center;verticalAlign=middle;whiteSpace=wrap;rounded=0;fontSize=14;" parent="_nE7f_Leut5tjlK63jvd-72" vertex="1">
          <mxGeometry y="20" width="20" height="10" as="geometry" />
        </mxCell>
        <mxCell id="_nE7f_Leut5tjlK63jvd-75" value="0" style="text;html=1;align=center;verticalAlign=middle;whiteSpace=wrap;rounded=0;fontSize=14;" parent="_nE7f_Leut5tjlK63jvd-72" vertex="1">
          <mxGeometry y="50" width="20" height="10" as="geometry" />
        </mxCell>
        <mxCell id="_nE7f_Leut5tjlK63jvd-76" value="" style="endArrow=classic;html=1;rounded=0;exitX=0.5;exitY=0;exitDx=0;exitDy=0;fontSize=14;" parent="1" source="_nE7f_Leut5tjlK63jvd-73" edge="1">
          <mxGeometry width="50" height="50" relative="1" as="geometry">
            <mxPoint x="560" y="1140" as="sourcePoint" />
            <mxPoint x="630" y="1150" as="targetPoint" />
            <Array as="points">
              <mxPoint x="630" y="1120" />
              <mxPoint x="630" y="1150" />
            </Array>
          </mxGeometry>
        </mxCell>
        <mxCell id="_nE7f_Leut5tjlK63jvd-77" value="+1" style="ellipse;shape=cloud;whiteSpace=wrap;html=1;fontSize=14;" parent="1" vertex="1">
          <mxGeometry x="720" y="1100" width="90" height="50" as="geometry" />
        </mxCell>
        <mxCell id="_nE7f_Leut5tjlK63jvd-78" value="" style="endArrow=classic;html=1;rounded=0;entryX=0;entryY=0.5;entryDx=0;entryDy=0;fontSize=14;" parent="1" target="_nE7f_Leut5tjlK63jvd-73" edge="1">
          <mxGeometry width="50" height="50" relative="1" as="geometry">
            <mxPoint x="595" y="1040" as="sourcePoint" />
            <mxPoint x="620" y="990" as="targetPoint" />
          </mxGeometry>
        </mxCell>
        <mxCell id="_nE7f_Leut5tjlK63jvd-79" value="reset_index_lt_200" style="text;html=1;align=center;verticalAlign=middle;whiteSpace=wrap;rounded=0;fontSize=14;" parent="1" vertex="1">
          <mxGeometry x="590" y="1010" width="60" height="30" as="geometry" />
        </mxCell>
        <mxCell id="_nE7f_Leut5tjlK63jvd-80" value="" style="endArrow=classic;html=1;rounded=0;entryX=0;entryY=0;entryDx=0;entryDy=0;fontSize=14;" parent="1" target="_nE7f_Leut5tjlK63jvd-74" edge="1">
          <mxGeometry width="50" height="50" relative="1" as="geometry">
            <mxPoint x="510" y="1100" as="sourcePoint" />
            <mxPoint x="560" y="1110" as="targetPoint" />
          </mxGeometry>
        </mxCell>
        <mxCell id="_nE7f_Leut5tjlK63jvd-81" value="0" style="text;html=1;align=center;verticalAlign=middle;whiteSpace=wrap;rounded=0;fontSize=14;" parent="1" vertex="1">
          <mxGeometry x="480" y="1070" width="60" height="30" as="geometry" />
        </mxCell>
        <mxCell id="_nE7f_Leut5tjlK63jvd-82" value="" style="endArrow=classic;html=1;rounded=0;exitX=1;exitY=0.5;exitDx=0;exitDy=0;fontSize=14;" parent="1" source="_nE7f_Leut5tjlK63jvd-15" edge="1">
          <mxGeometry width="50" height="50" relative="1" as="geometry">
            <mxPoint x="843" y="1231.25" as="sourcePoint" />
            <mxPoint x="840" y="1175" as="targetPoint" />
          </mxGeometry>
        </mxCell>
        <mxCell id="_nE7f_Leut5tjlK63jvd-83" value="" style="group;fontSize=14;" parent="1" vertex="1" connectable="0">
          <mxGeometry x="840" y="1150" width="30" height="80" as="geometry" />
        </mxCell>
        <mxCell id="_nE7f_Leut5tjlK63jvd-84" value="" style="shape=trapezoid;perimeter=trapezoidPerimeter;whiteSpace=wrap;html=1;fixedSize=1;direction=south;fontSize=14;" parent="_nE7f_Leut5tjlK63jvd-83" vertex="1">
          <mxGeometry width="30" height="80" as="geometry" />
        </mxCell>
        <mxCell id="_nE7f_Leut5tjlK63jvd-85" value="1" style="text;html=1;align=center;verticalAlign=middle;whiteSpace=wrap;rounded=0;fontSize=14;" parent="_nE7f_Leut5tjlK63jvd-83" vertex="1">
          <mxGeometry y="20" width="20" height="10" as="geometry" />
        </mxCell>
        <mxCell id="_nE7f_Leut5tjlK63jvd-86" value="0" style="text;html=1;align=center;verticalAlign=middle;whiteSpace=wrap;rounded=0;fontSize=14;" parent="_nE7f_Leut5tjlK63jvd-83" vertex="1">
          <mxGeometry y="50" width="20" height="10" as="geometry" />
        </mxCell>
        <mxCell id="_nE7f_Leut5tjlK63jvd-87" value="" style="endArrow=classic;html=1;rounded=0;entryX=0;entryY=0.25;entryDx=0;entryDy=0;fontSize=14;" parent="1" target="_nE7f_Leut5tjlK63jvd-84" edge="1">
          <mxGeometry width="50" height="50" relative="1" as="geometry">
            <mxPoint x="860" y="1130" as="sourcePoint" />
            <mxPoint x="860" y="1105" as="targetPoint" />
          </mxGeometry>
        </mxCell>
        <mxCell id="_nE7f_Leut5tjlK63jvd-88" value="read_en_d" style="text;html=1;align=center;verticalAlign=middle;whiteSpace=wrap;rounded=0;fontSize=14;" parent="1" vertex="1">
          <mxGeometry x="820" y="1100" width="60" height="30" as="geometry" />
        </mxCell>
        <mxCell id="_nE7f_Leut5tjlK63jvd-89" value="" style="endArrow=classic;html=1;rounded=0;entryX=0;entryY=0;entryDx=0;entryDy=0;entryPerimeter=0;fontSize=14;" parent="1" target="_nE7f_Leut5tjlK63jvd-86" edge="1">
          <mxGeometry width="50" height="50" relative="1" as="geometry">
            <mxPoint x="820" y="1240" as="sourcePoint" />
            <mxPoint x="730" y="1180" as="targetPoint" />
            <Array as="points">
              <mxPoint x="820" y="1200" />
            </Array>
          </mxGeometry>
        </mxCell>
        <mxCell id="_nE7f_Leut5tjlK63jvd-90" value="0" style="text;html=1;align=center;verticalAlign=middle;whiteSpace=wrap;rounded=0;fontSize=14;" parent="1" vertex="1">
          <mxGeometry x="800" y="1231.25" width="60" height="30" as="geometry" />
        </mxCell>
        <mxCell id="_nE7f_Leut5tjlK63jvd-91" value="" style="endArrow=classic;html=1;rounded=0;exitX=0.5;exitY=0;exitDx=0;exitDy=0;fontSize=14;" parent="1" source="_nE7f_Leut5tjlK63jvd-84" edge="1">
          <mxGeometry width="50" height="50" relative="1" as="geometry">
            <mxPoint x="920" y="1225" as="sourcePoint" />
            <mxPoint x="960" y="1190" as="targetPoint" />
          </mxGeometry>
        </mxCell>
        <mxCell id="_nE7f_Leut5tjlK63jvd-94" value="cinird_o" style="text;html=1;align=center;verticalAlign=middle;whiteSpace=wrap;rounded=0;fontSize=14;" parent="1" vertex="1">
          <mxGeometry x="923" y="1150" width="60" height="30" as="geometry" />
        </mxCell>
        <mxCell id="_nE7f_Leut5tjlK63jvd-95" value="Controller" style="rounded=0;whiteSpace=wrap;html=1;fontSize=14;" parent="1" vertex="1">
          <mxGeometry x="773" y="885" width="120" height="115" as="geometry" />
        </mxCell>
        <mxCell id="_nE7f_Leut5tjlK63jvd-96" value="" style="endArrow=classic;html=1;rounded=0;entryX=0.308;entryY=1.022;entryDx=0;entryDy=0;entryPerimeter=0;fontSize=14;" parent="1" edge="1">
          <mxGeometry width="50" height="50" relative="1" as="geometry">
            <mxPoint x="802.93" y="1027.47" as="sourcePoint" />
            <mxPoint x="802.89" y="1000" as="targetPoint" />
          </mxGeometry>
        </mxCell>
        <mxCell id="_nE7f_Leut5tjlK63jvd-97" value="reset_done" style="text;html=1;align=center;verticalAlign=middle;whiteSpace=wrap;rounded=0;fontSize=14;" parent="1" vertex="1">
          <mxGeometry x="773" y="1020" width="60" height="30" as="geometry" />
        </mxCell>
        <mxCell id="_nE7f_Leut5tjlK63jvd-98" value="" style="endArrow=classic;html=1;rounded=0;fontSize=14;" parent="1" edge="1">
          <mxGeometry width="50" height="50" relative="1" as="geometry">
            <mxPoint x="960" y="920" as="sourcePoint" />
            <mxPoint x="894" y="920" as="targetPoint" />
          </mxGeometry>
        </mxCell>
        <mxCell id="_nE7f_Leut5tjlK63jvd-99" value="i_valid" style="text;html=1;align=center;verticalAlign=middle;whiteSpace=wrap;rounded=0;fontSize=14;" parent="1" vertex="1">
          <mxGeometry x="923" y="885" width="60" height="30" as="geometry" />
        </mxCell>
        <mxCell id="_nE7f_Leut5tjlK63jvd-100" value="" style="endArrow=classic;html=1;rounded=0;entryX=1.005;entryY=0.65;entryDx=0;entryDy=0;entryPerimeter=0;fontSize=14;" parent="1" target="_nE7f_Leut5tjlK63jvd-95" edge="1">
          <mxGeometry width="50" height="50" relative="1" as="geometry">
            <mxPoint x="960" y="960" as="sourcePoint" />
            <mxPoint x="900" y="960" as="targetPoint" />
          </mxGeometry>
        </mxCell>
        <mxCell id="_nE7f_Leut5tjlK63jvd-101" value="read_en" style="text;html=1;align=center;verticalAlign=middle;whiteSpace=wrap;rounded=0;fontSize=14;" parent="1" vertex="1">
          <mxGeometry x="923" y="927.5" width="60" height="30" as="geometry" />
        </mxCell>
        <mxCell id="_nE7f_Leut5tjlK63jvd-104" value="" style="endArrow=classic;html=1;rounded=0;entryX=0.308;entryY=1.022;entryDx=0;entryDy=0;entryPerimeter=0;fontSize=14;" parent="1" edge="1">
          <mxGeometry width="50" height="50" relative="1" as="geometry">
            <mxPoint x="870" y="1027" as="sourcePoint" />
            <mxPoint x="870" y="1000" as="targetPoint" />
          </mxGeometry>
        </mxCell>
        <mxCell id="_nE7f_Leut5tjlK63jvd-105" value="done_read" style="text;html=1;align=center;verticalAlign=middle;whiteSpace=wrap;rounded=0;fontSize=14;" parent="1" vertex="1">
          <mxGeometry x="848" y="1020" width="60" height="30" as="geometry" />
        </mxCell>
        <mxCell id="_nE7f_Leut5tjlK63jvd-106" value="" style="endArrow=classic;html=1;rounded=0;entryX=0.227;entryY=0.003;entryDx=0;entryDy=0;entryPerimeter=0;fontSize=14;" parent="1" target="_nE7f_Leut5tjlK63jvd-95" edge="1">
          <mxGeometry width="50" height="50" relative="1" as="geometry">
            <mxPoint x="800" y="840" as="sourcePoint" />
            <mxPoint x="670" y="790" as="targetPoint" />
          </mxGeometry>
        </mxCell>
        <mxCell id="_nE7f_Leut5tjlK63jvd-107" value="rst_n" style="text;html=1;align=center;verticalAlign=middle;whiteSpace=wrap;rounded=0;fontSize=14;" parent="1" vertex="1">
          <mxGeometry x="770" y="810" width="60" height="30" as="geometry" />
        </mxCell>
        <mxCell id="_nE7f_Leut5tjlK63jvd-108" value="" style="endArrow=classic;html=1;rounded=0;entryX=0.557;entryY=-0.001;entryDx=0;entryDy=0;entryPerimeter=0;fontSize=14;" parent="1" target="_nE7f_Leut5tjlK63jvd-95" edge="1">
          <mxGeometry width="50" height="50" relative="1" as="geometry">
            <mxPoint x="840" y="840" as="sourcePoint" />
            <mxPoint x="841" y="885" as="targetPoint" />
          </mxGeometry>
        </mxCell>
        <mxCell id="_nE7f_Leut5tjlK63jvd-109" value="clk" style="text;html=1;align=center;verticalAlign=middle;whiteSpace=wrap;rounded=0;fontSize=14;" parent="1" vertex="1">
          <mxGeometry x="810" y="810" width="60" height="30" as="geometry" />
        </mxCell>
        <mxCell id="_nE7f_Leut5tjlK63jvd-110" value="" style="endArrow=classic;html=1;rounded=0;exitX=0;exitY=0.129;exitDx=0;exitDy=0;exitPerimeter=0;fontSize=14;" parent="1" source="_nE7f_Leut5tjlK63jvd-95" edge="1">
          <mxGeometry width="50" height="50" relative="1" as="geometry">
            <mxPoint x="723" y="910" as="sourcePoint" />
            <mxPoint x="720" y="900" as="targetPoint" />
          </mxGeometry>
        </mxCell>
        <mxCell id="_nE7f_Leut5tjlK63jvd-111" value="count_en" style="text;html=1;align=center;verticalAlign=middle;whiteSpace=wrap;rounded=0;fontSize=14;" parent="1" vertex="1">
          <mxGeometry x="700" y="870" width="60" height="30" as="geometry" />
        </mxCell>
        <mxCell id="_nE7f_Leut5tjlK63jvd-112" value="" style="endArrow=classic;html=1;rounded=0;exitX=0;exitY=0.129;exitDx=0;exitDy=0;exitPerimeter=0;fontSize=14;" parent="1" edge="1">
          <mxGeometry width="50" height="50" relative="1" as="geometry">
            <mxPoint x="773" y="925" as="sourcePoint" />
            <mxPoint x="720" y="925" as="targetPoint" />
          </mxGeometry>
        </mxCell>
        <mxCell id="_nE7f_Leut5tjlK63jvd-113" value="reset_en" style="text;html=1;align=center;verticalAlign=middle;whiteSpace=wrap;rounded=0;fontSize=14;" parent="1" vertex="1">
          <mxGeometry x="700" y="900" width="60" height="30" as="geometry" />
        </mxCell>
        <mxCell id="_nE7f_Leut5tjlK63jvd-114" value="" style="endArrow=classic;html=1;rounded=0;exitX=1.01;exitY=0.876;exitDx=0;exitDy=0;exitPerimeter=0;fontSize=14;" parent="1" source="_nE7f_Leut5tjlK63jvd-95" edge="1">
          <mxGeometry width="50" height="50" relative="1" as="geometry">
            <mxPoint x="920" y="1010" as="sourcePoint" />
            <mxPoint x="960" y="986" as="targetPoint" />
          </mxGeometry>
        </mxCell>
        <mxCell id="_nE7f_Leut5tjlK63jvd-117" value="o_finish" style="text;html=1;align=center;verticalAlign=middle;whiteSpace=wrap;rounded=0;fontSize=14;" parent="1" vertex="1">
          <mxGeometry x="923" y="957.5" width="60" height="30" as="geometry" />
        </mxCell>
        <mxCell id="_nE7f_Leut5tjlK63jvd-118" value="" style="endArrow=classic;html=1;rounded=0;entryX=0.987;entryY=1.059;entryDx=0;entryDy=0;entryPerimeter=0;fontSize=14;" parent="1" target="_nE7f_Leut5tjlK63jvd-109" edge="1">
          <mxGeometry width="50" height="50" relative="1" as="geometry">
            <mxPoint x="869.8" y="885" as="sourcePoint" />
            <mxPoint x="869.8" y="845" as="targetPoint" />
          </mxGeometry>
        </mxCell>
        <mxCell id="_nE7f_Leut5tjlK63jvd-119" value="o_valid" style="text;html=1;align=center;verticalAlign=middle;whiteSpace=wrap;rounded=0;fontSize=14;" parent="1" vertex="1">
          <mxGeometry x="850" y="810" width="60" height="30" as="geometry" />
        </mxCell>
      </root>
    </mxGraphModel>
  </diagram>
</mxfile>
